<mxfile host="app.diagrams.net" modified="2022-06-19T08:13:24.698Z" agent="5.0 (Windows NT 10.0; Win64; x64) AppleWebKit/537.36 (KHTML, like Gecko) Chrome/102.0.5005.63 Safari/537.36" etag="igl-J4hmwm-6jEQJhMXL" version="20.0.1" type="github">
  <diagram id="IBA-_tSFu6mASBX1kX7_" name="Page-1">
    <mxGraphModel dx="1967" dy="633" grid="1" gridSize="10" guides="1" tooltips="1" connect="1" arrows="1" fold="1" page="1" pageScale="1" pageWidth="827" pageHeight="1169" math="0" shadow="0">
      <root>
        <mxCell id="0" />
        <mxCell id="1" parent="0" />
        <mxCell id="_9OL7iZlOtj2cYj0QsQF-1" value="职位利益" style="rounded=0;whiteSpace=wrap;html=1;fillColor=#dae8fc;strokeColor=#6c8ebf;" vertex="1" parent="1">
          <mxGeometry x="330" y="130" width="120" height="60" as="geometry" />
        </mxCell>
        <mxCell id="_9OL7iZlOtj2cYj0QsQF-3" value="开发" style="rounded=0;whiteSpace=wrap;html=1;" vertex="1" parent="1">
          <mxGeometry x="40" y="270" width="120" height="60" as="geometry" />
        </mxCell>
        <mxCell id="_9OL7iZlOtj2cYj0QsQF-4" value="产品" style="rounded=0;whiteSpace=wrap;html=1;" vertex="1" parent="1">
          <mxGeometry x="180" y="270" width="120" height="60" as="geometry" />
        </mxCell>
        <mxCell id="_9OL7iZlOtj2cYj0QsQF-5" value="项目经理" style="rounded=0;whiteSpace=wrap;html=1;" vertex="1" parent="1">
          <mxGeometry x="630" y="270" width="120" height="60" as="geometry" />
        </mxCell>
        <mxCell id="_9OL7iZlOtj2cYj0QsQF-6" value="产品经理" style="rounded=0;whiteSpace=wrap;html=1;" vertex="1" parent="1">
          <mxGeometry x="480" y="270" width="120" height="60" as="geometry" />
        </mxCell>
        <mxCell id="_9OL7iZlOtj2cYj0QsQF-7" value="运营" style="rounded=0;whiteSpace=wrap;html=1;" vertex="1" parent="1">
          <mxGeometry x="110" y="370" width="120" height="60" as="geometry" />
        </mxCell>
        <mxCell id="_9OL7iZlOtj2cYj0QsQF-8" value="运维" style="rounded=0;whiteSpace=wrap;html=1;" vertex="1" parent="1">
          <mxGeometry x="250" y="370" width="120" height="60" as="geometry" />
        </mxCell>
        <mxCell id="_9OL7iZlOtj2cYj0QsQF-9" value="举总" style="rounded=0;whiteSpace=wrap;html=1;fillColor=#f8cecc;strokeColor=#b85450;" vertex="1" parent="1">
          <mxGeometry x="110" y="460" width="120" height="60" as="geometry" />
        </mxCell>
        <mxCell id="_9OL7iZlOtj2cYj0QsQF-10" value="算法" style="rounded=0;whiteSpace=wrap;html=1;" vertex="1" parent="1">
          <mxGeometry x="250" y="460" width="120" height="60" as="geometry" />
        </mxCell>
        <mxCell id="_9OL7iZlOtj2cYj0QsQF-11" value="测试" style="rounded=0;whiteSpace=wrap;html=1;" vertex="1" parent="1">
          <mxGeometry x="330" y="270" width="120" height="60" as="geometry" />
        </mxCell>
        <mxCell id="_9OL7iZlOtj2cYj0QsQF-12" value="项目团队" style="rounded=0;whiteSpace=wrap;html=1;fillColor=#dae8fc;strokeColor=#6c8ebf;" vertex="1" parent="1">
          <mxGeometry x="354" y="610" width="120" height="60" as="geometry" />
        </mxCell>
        <mxCell id="_9OL7iZlOtj2cYj0QsQF-13" value="项目组" style="rounded=0;whiteSpace=wrap;html=1;" vertex="1" parent="1">
          <mxGeometry x="110" y="720" width="120" height="60" as="geometry" />
        </mxCell>
        <mxCell id="_9OL7iZlOtj2cYj0QsQF-14" value="c端" style="rounded=0;whiteSpace=wrap;html=1;" vertex="1" parent="1">
          <mxGeometry x="270" y="720" width="120" height="60" as="geometry" />
        </mxCell>
        <mxCell id="_9OL7iZlOtj2cYj0QsQF-15" value="你的想法到底是什么？" style="text;html=1;strokeColor=#9673a6;fillColor=#e1d5e7;align=center;verticalAlign=middle;whiteSpace=wrap;rounded=0;" vertex="1" parent="1">
          <mxGeometry x="-70" y="490" width="210" height="30" as="geometry" />
        </mxCell>
        <mxCell id="_9OL7iZlOtj2cYj0QsQF-16" value="公司战略到底是什么？" style="text;html=1;strokeColor=#9673a6;fillColor=#e1d5e7;align=center;verticalAlign=middle;whiteSpace=wrap;rounded=0;" vertex="1" parent="1">
          <mxGeometry x="-70" y="530" width="210" height="30" as="geometry" />
        </mxCell>
        <mxCell id="_9OL7iZlOtj2cYj0QsQF-17" value="平台组" style="rounded=0;whiteSpace=wrap;html=1;" vertex="1" parent="1">
          <mxGeometry x="430" y="720" width="120" height="60" as="geometry" />
        </mxCell>
        <mxCell id="_9OL7iZlOtj2cYj0QsQF-18" value="数据组" style="rounded=0;whiteSpace=wrap;html=1;" vertex="1" parent="1">
          <mxGeometry x="440" y="410" width="120" height="60" as="geometry" />
        </mxCell>
        <mxCell id="_9OL7iZlOtj2cYj0QsQF-19" value="各组职能是什么" style="text;html=1;strokeColor=#9673a6;fillColor=#e1d5e7;align=center;verticalAlign=middle;whiteSpace=wrap;rounded=0;" vertex="1" parent="1">
          <mxGeometry x="-70" y="650" width="210" height="30" as="geometry" />
        </mxCell>
        <mxCell id="_9OL7iZlOtj2cYj0QsQF-20" value="数据组" style="rounded=0;whiteSpace=wrap;html=1;" vertex="1" parent="1">
          <mxGeometry x="590" y="720" width="120" height="60" as="geometry" />
        </mxCell>
        <mxCell id="_9OL7iZlOtj2cYj0QsQF-21" value="" style="endArrow=none;dashed=1;html=1;dashPattern=1 3;strokeWidth=2;rounded=0;" edge="1" parent="1">
          <mxGeometry width="50" height="50" relative="1" as="geometry">
            <mxPoint x="-40" y="590" as="sourcePoint" />
            <mxPoint x="770" y="590" as="targetPoint" />
          </mxGeometry>
        </mxCell>
        <mxCell id="_9OL7iZlOtj2cYj0QsQF-22" value="项目化还是产品化？" style="text;html=1;strokeColor=#9673a6;fillColor=#e1d5e7;align=center;verticalAlign=middle;whiteSpace=wrap;rounded=0;" vertex="1" parent="1">
          <mxGeometry x="-90" y="850" width="210" height="30" as="geometry" />
        </mxCell>
        <mxCell id="_9OL7iZlOtj2cYj0QsQF-24" value="我们是不是在项目化的路上狂奔?&lt;span style=&quot;color: rgba(0, 0, 0, 0); font-family: monospace; font-size: 0px; text-align: start;&quot;&gt;%3CmxGraphModel%3E%3Croot%3E%3CmxCell%20id%3D%220%22%2F%3E%3CmxCell%20id%3D%221%22%20parent%3D%220%22%2F%3E%3CmxCell%20id%3D%222%22%20value%3D%22%E9%A1%B9%E7%9B%AE%E5%8C%96%E8%BF%98%E6%98%AF%E4%BA%A7%E5%93%81%E5%8C%96%EF%BC%9F%22%20style%3D%22text%3Bhtml%3D1%3BstrokeColor%3D%239673a6%3BfillColor%3D%23e1d5e7%3Balign%3Dcenter%3BverticalAlign%3Dmiddle%3BwhiteSpace%3Dwrap%3Brounded%3D0%3B%22%20vertex%3D%221%22%20parent%3D%221%22%3E%3CmxGeometry%20x%3D%22-90%22%20y%3D%22850%22%20width%3D%22210%22%20height%3D%2230%22%20as%3D%22geometry%22%2F%3E%3C%2FmxCell%3E%3C%2Froot%3E%3C%2FmxGraphModel%3E？&lt;/span&gt;" style="text;html=1;strokeColor=#9673a6;fillColor=#e1d5e7;align=center;verticalAlign=middle;whiteSpace=wrap;rounded=0;" vertex="1" parent="1">
          <mxGeometry x="-90" y="890" width="210" height="30" as="geometry" />
        </mxCell>
        <mxCell id="_9OL7iZlOtj2cYj0QsQF-27" value="各组在做什么？有多少人？" style="text;html=1;strokeColor=#9673a6;fillColor=#e1d5e7;align=center;verticalAlign=middle;whiteSpace=wrap;rounded=0;" vertex="1" parent="1">
          <mxGeometry x="-70" y="690" width="210" height="30" as="geometry" />
        </mxCell>
        <mxCell id="_9OL7iZlOtj2cYj0QsQF-28" value="" style="endArrow=none;dashed=1;html=1;dashPattern=1 3;strokeWidth=2;rounded=0;" edge="1" parent="1">
          <mxGeometry width="50" height="50" relative="1" as="geometry">
            <mxPoint x="-40" y="960" as="sourcePoint" />
            <mxPoint x="770" y="960" as="targetPoint" />
          </mxGeometry>
        </mxCell>
        <mxCell id="_9OL7iZlOtj2cYj0QsQF-29" value="外部B端压力、&lt;br&gt;大C压力" style="rounded=0;whiteSpace=wrap;html=1;" vertex="1" parent="1">
          <mxGeometry x="580" y="180" width="120" height="60" as="geometry" />
        </mxCell>
      </root>
    </mxGraphModel>
  </diagram>
</mxfile>
